<?xml version="1.0" encoding="UTF-8"?>
<svg id="_Слой_2" data-name="Слой 2" xmlns="http://www.w3.org/2000/svg" viewBox="0 0 408.7 152.62">
  <defs>
    <style>
      .cls-1 {
        fill: #006cff;
      }
    </style>
  </defs>
  <g id="_Слой_1-2" data-name="Слой 1">
    <polygon class="cls-1" points="408.7 23.18 395.05 39.86 378.83 39.86 370.63 29.84 370.64 12.39 385.02 31.59 386.93 29.05 408.69 0 408.7 23.18"/>
    <g>
      <path d="m85.01,117.37l-11.48-34.29H28.23l-12.44,34.29H0L43.06,3.02h17.54l41.47,114.35h-17.06Zm-16.59-46.89l-17.38-50.56-18.34,50.56h35.72Z"/>
      <path d="m130.04,38.11c4.31-3.99,9.09-6.06,14.67-6.06.16,0,.64,0,1.28.16l3.19.32v14.83c-.8-.16-1.44-.32-2.23-.32-.64-.16-1.44-.16-2.39-.16-7.02,0-12.44,2.23-16.27,6.86-3.67,4.46-5.58,9.73-5.58,15.63v48h-14.03V33.96h13.24v14.35c1.12-2.71,3.83-6.22,8.13-10.21Z"/>
      <path d="m211.01,45.29v-10.53h12.92v75.91c0,10.53-1.44,18.82-4.62,25.04-5.9,11.32-16.75,16.91-33.01,16.91-8.93,0-16.43-2.07-22.65-5.9-6.06-4.15-9.57-10.37-10.21-18.98h14.19c.8,3.67,2.07,6.54,4.15,8.61,3.19,3.19,8.13,4.62,14.83,4.62,10.84,0,17.86-3.67,21.21-11.32,1.91-4.47,2.87-12.44,2.71-23.92-2.87,4.31-6.22,7.5-10.21,9.57-3.99,2.07-9.09,3.03-15.63,3.03-8.93,0-16.91-3.19-23.6-9.57-6.86-6.38-10.21-17.06-10.21-31.74s3.35-24.88,10.21-32.69c6.86-7.97,14.99-11.8,24.72-11.8,6.54,0,12.28,1.59,17.06,4.78,2.71,1.75,5.42,4.47,8.13,7.97Zm-22.65-.48c-9.89,0-16.59,4.62-20.25,13.88-1.91,4.94-2.87,11.48-2.87,19.46,0,9.41,1.91,16.43,5.74,21.37,3.83,4.94,8.93,7.5,15.31,7.5,10.05,0,17.22-4.62,21.37-13.72,2.23-5.1,3.35-11.16,3.35-18.02,0-10.37-2.07-17.86-6.38-22.97-4.31-4.94-9.57-7.5-16.27-7.5Z"/>
      <path d="m250.05,99.83c2.55,4.94,7.18,7.5,13.88,7.5,9.73,0,16.43-4.46,19.94-13.24,2.07-4.62,3.03-11,3.03-19.14v-40.99h13.88v83.41h-13.24l.16-12.28c-1.75,3.19-3.99,5.74-6.7,7.97-5.42,4.31-11.8,6.54-19.46,6.54-11.96,0-20.1-3.99-24.4-11.96-2.23-4.15-3.51-9.89-3.51-16.91v-56.78h14.35v55.34c0,4.31.8,7.81,2.07,10.53Z"/>
      <path d="m325.69,101.91c3.51,4.62,9.57,6.86,18.34,6.86,5.26,0,9.73-1.28,13.72-3.51,3.99-2.23,5.9-5.58,5.9-10.37,0-3.67-1.59-6.38-4.79-8.13-2.07-1.28-5.9-2.55-11.96-3.99l-11.16-2.87c-7.02-1.75-12.28-3.67-15.63-5.9-6.06-3.83-9.09-9.09-9.09-15.79,0-7.81,2.87-14.19,8.61-19.14,5.58-4.78,13.24-7.34,22.81-7.34,12.6,0,21.69,3.67,27.27,11.16,3.51,4.62,5.1,9.73,4.94,14.99h-13.24c-.16-3.19-1.43-6.06-3.35-8.61-3.19-3.67-8.77-5.42-16.75-5.42-5.26,0-9.25.96-11.96,3.03-2.71,1.91-4.15,4.62-4.15,7.97,0,3.67,1.75,6.54,5.42,8.77,2.07,1.28,5.1,2.39,9.25,3.35l9.25,2.23c10.05,2.39,16.75,4.94,20.25,7.18,5.42,3.51,8.13,9.09,8.13,16.91,0,7.34-2.87,13.88-8.45,19.14-5.74,5.42-14.19,8.13-25.68,8.13-12.44,0-21.21-2.87-26.47-8.45-5.1-5.58-7.81-12.6-8.29-20.89h13.56c.32,4.62,1.43,8.29,3.51,10.69Z"/>
    </g>
    <g>
      <path d="m238.47,137.08h-1.4v-9h-3.45v-1.21h8.29v1.21h-3.45v9Z"/>
      <path d="m243.9,130c.38-.36.81-.54,1.31-.54.01,0,.06,0,.11.01l.29.03v1.33c-.07-.02-.13-.03-.2-.03-.06-.01-.13-.01-.21-.01-.63,0-1.11.2-1.45.61-.33.4-.5.87-.5,1.4v4.29h-1.25v-7.45h1.18v1.28c.1-.24.34-.56.73-.91Z"/>
      <path d="m251.26,132.21c.06-.11.09-.27.09-.48,0-.43-.16-.74-.46-.93-.3-.2-.74-.29-1.3-.29-.66,0-1.13.17-1.4.53-.16.18-.26.48-.3.87h-1.17c.01-.93.31-1.57.9-1.92.57-.36,1.23-.54,1.99-.54.87,0,1.58.17,2.12.51.56.33.83.85.83,1.55v4.29c0,.13.03.24.07.31.06.09.17.11.34.11.06,0,.11,0,.19-.01.07,0,.14-.01.23-.01v.91c-.2.06-.34.1-.46.11-.1.01-.24.01-.41.01-.43,0-.74-.16-.94-.46-.1-.16-.17-.38-.21-.68-.26.33-.61.63-1.1.87s-1,.37-1.58.37c-.68,0-1.25-.21-1.7-.64-.43-.41-.66-.94-.66-1.57,0-.7.21-1.22.64-1.61.44-.39,1-.61,1.71-.7l1.99-.26c.28-.03.47-.16.57-.36Zm-2.27,4.06c.43,0,.87-.1,1.27-.31.7-.34,1.05-.88,1.05-1.65v-1.01c-.16.1-.36.19-.6.24-.24.06-.48.11-.71.14l-.76.1c-.46.06-.8.14-1.03.28-.37.21-.57.56-.57,1.04,0,.36.13.64.4.85.26.21.57.31.94.31Z"/>
      <path d="m260.5,132.13h-1.22c-.07-.46-.24-.84-.51-1.15-.26-.3-.68-.44-1.27-.44-.8,0-1.37.39-1.71,1.17-.23.5-.33,1.13-.33,1.87s.16,1.38.47,1.88c.31.51.81.77,1.48.77.53,0,.94-.16,1.24-.48.3-.31.51-.74.63-1.3h1.22c-.14.98-.5,1.71-1.05,2.17s-1.27.68-2.14.68c-.97,0-1.75-.36-2.32-1.07-.58-.71-.87-1.59-.87-2.66,0-1.31.31-2.32.95-3.05.63-.74,1.44-1.1,2.42-1.1.84,0,1.52.2,2.05.61.53.41.84,1.11.95,2.11Z"/>
      <path d="m266.14,129.63h1.6l-2.85,2.79,3.01,4.66h-1.6l-2.32-3.76-1.05.97v2.79h-1.21v-10.21h1.21v5.93l3.22-3.16Z"/>
      <path d="m277.4,132.21c.06-.11.09-.27.09-.48,0-.43-.16-.74-.46-.93-.3-.2-.74-.29-1.3-.29-.66,0-1.13.17-1.4.53-.16.18-.26.48-.3.87h-1.17c.01-.93.31-1.57.9-1.92.57-.36,1.22-.54,1.99-.54.87,0,1.58.17,2.12.51.56.33.83.85.83,1.55v4.29c0,.13.03.24.07.31.06.09.17.11.34.11.06,0,.11,0,.19-.01.07,0,.14-.01.23-.01v.91c-.2.06-.34.1-.46.11-.1.01-.24.01-.41.01-.43,0-.74-.16-.94-.46-.1-.16-.17-.38-.21-.68-.26.33-.61.63-1.1.87s-1,.37-1.58.37c-.68,0-1.25-.21-1.7-.64-.43-.41-.65-.94-.65-1.57,0-.7.21-1.22.64-1.61.44-.39,1-.61,1.71-.7l1.99-.26c.28-.03.47-.16.57-.36Zm-2.27,4.06c.43,0,.87-.1,1.27-.31.7-.34,1.05-.88,1.05-1.65v-1.01c-.16.1-.36.19-.6.24-.24.06-.48.11-.71.14l-.76.1c-.46.06-.8.14-1.03.28-.37.21-.57.56-.57,1.04,0,.36.13.64.4.85.26.21.57.31.94.31Z"/>
      <path d="m283.08,129.74c.38-.19.83-.28,1.31-.28,1.05,0,1.77.37,2.14,1.11.2.4.31.98.31,1.74v4.77h-1.28v-4.7c0-.44-.07-.81-.2-1.1-.21-.46-.63-.7-1.21-.7-.3,0-.54.03-.73.1-.34.1-.64.3-.91.61-.2.24-.33.5-.4.76-.06.27-.1.64-.1,1.13v3.9h-1.25v-7.45h1.2v1.05c.36-.43.73-.74,1.13-.94Z"/>
      <path d="m293.25,132.21c.06-.11.09-.27.09-.48,0-.43-.16-.74-.46-.93-.3-.2-.74-.29-1.3-.29-.66,0-1.13.17-1.4.53-.16.18-.26.48-.3.87h-1.17c.01-.93.31-1.57.9-1.92.57-.36,1.22-.54,1.99-.54.87,0,1.58.17,2.12.51.56.33.83.85.83,1.55v4.29c0,.13.03.24.07.31.06.09.17.11.34.11.06,0,.11,0,.19-.01.07,0,.14-.01.23-.01v.91c-.2.06-.34.1-.46.11-.1.01-.24.01-.41.01-.43,0-.74-.16-.94-.46-.1-.16-.17-.38-.21-.68-.26.33-.61.63-1.1.87s-1,.37-1.58.37c-.68,0-1.25-.21-1.7-.64-.43-.41-.65-.94-.65-1.57,0-.7.21-1.22.64-1.61.44-.39,1-.61,1.71-.7l1.99-.26c.28-.03.47-.16.57-.36Zm-2.27,4.06c.43,0,.87-.1,1.27-.31.7-.34,1.05-.88,1.05-1.65v-1.01c-.16.1-.36.19-.6.24-.24.06-.48.11-.71.14l-.76.1c-.46.06-.8.14-1.03.28-.37.21-.57.56-.57,1.04,0,.36.13.64.4.85.26.21.57.31.94.31Z"/>
      <path d="m296.65,137.08v-10.21h1.25v10.21h-1.25Z"/>
      <path d="m304.64,132.9c-.46,1.27-.84,2.32-1.14,3.12-.73,1.91-1.24,3.06-1.54,3.48-.3.43-.8.63-1.52.63-.17,0-.31,0-.4-.01-.1-.01-.23-.04-.36-.07v-1.15c.21.07.37.1.47.11s.19.03.26.03c.23,0,.4-.04.51-.11.1-.07.2-.17.27-.28.03-.04.1-.23.26-.57l.31-.77-2.76-7.66h1.42l1.99,6.07,2.01-6.07h1.38c-.17.48-.57,1.57-1.17,3.28Z"/>
      <path d="m306.67,129.63h5.78v1.03l-4.39,5.3h4.52v1.13h-6.24v-.98l4.42-5.34h-4.09v-1.13Z"/>
      <path d="m319.81,130.79c.24.37.41.81.5,1.31.07.34.11.9.11,1.65h-5.47c.03.76.21,1.35.54,1.81s.85.68,1.55.68c.66,0,1.17-.21,1.57-.64.21-.26.38-.54.47-.87h1.22c-.03.27-.13.57-.31.91-.19.34-.38.61-.63.83-.37.37-.84.61-1.41.76-.3.07-.64.11-1.01.11-.93,0-1.72-.34-2.36-1.03-.64-.67-.97-1.61-.97-2.82s.33-2.18.98-2.92c.64-.74,1.48-1.13,2.54-1.13.53,0,1.04.13,1.54.37.5.26.88.57,1.14.97Zm-1.04.66c-.33-.6-.91-.9-1.71-.9-.58,0-1.05.21-1.45.61-.38.43-.6.95-.61,1.6h4.13c-.04-.54-.16-.98-.36-1.31Z"/>
      <path d="m332.35,133.2c0,1.2-.28,2.18-.87,2.98-.58.78-1.5,1.17-2.72,1.17-1.03,0-1.84-.34-2.45-1.04-.6-.7-.9-1.62-.9-2.79,0-1.25.31-2.25.95-2.99.63-.74,1.48-1.11,2.55-1.11.97,0,1.78.31,2.44.95.67.64,1,1.58,1,2.83Zm-1.31.03c0-.7-.1-1.25-.33-1.69-.36-.68-.97-1.03-1.82-1.03-.77,0-1.33.29-1.67.87-.36.58-.53,1.28-.53,2.12,0,.78.17,1.45.53,1.98.34.53.9.78,1.65.78.83,0,1.4-.31,1.71-.94s.46-1.32.46-2.09Z"/>
      <path d="m335.79,129.87c.41-.29.91-.43,1.48-.43.84,0,1.57.33,2.15.97.6.66.88,1.58.88,2.78,0,1.62-.43,2.78-1.27,3.48-.54.44-1.17.67-1.88.67-.57,0-1.03-.13-1.41-.37-.23-.14-.47-.39-.74-.73v3.8h-1.25v-10.39h1.21v1c.26-.34.53-.6.83-.78Zm3.23,3.43c0-.58-.09-1.1-.26-1.52-.33-.83-.91-1.22-1.78-1.22s-1.45.43-1.78,1.3c-.17.47-.26,1.05-.26,1.77,0,.57.09,1.07.26,1.47.33.77.93,1.15,1.78,1.15.58,0,1.07-.24,1.47-.74.38-.48.57-1.21.57-2.19Z"/>
      <path d="m344.47,129.63v1.03h-1.18v4.86c0,.26.09.43.26.53.1.04.27.07.5.07h.19c.07,0,.16-.01.24-.01v.98c-.14.04-.28.07-.44.09-.16.03-.33.03-.51.03-.58,0-.97-.14-1.18-.44-.21-.3-.31-.68-.31-1.17v-4.93h-1.01v-1.03h1.01v-2.08h1.27v2.08h1.18Z"/>
      <path d="m345.72,128.27v-1.41h1.28v1.41h-1.28Zm0,8.8v-7.42h1.28v7.42h-1.28Z"/>
      <path d="m350.94,129.88c.41-.29.88-.43,1.41-.43.58,0,1.07.16,1.42.44.2.17.4.41.56.74.28-.4.61-.7.98-.9.38-.19.8-.28,1.27-.28,1,0,1.68.37,2.05,1.1.19.39.28.9.28,1.57v4.96h-1.3v-5.17c0-.5-.13-.84-.37-1.03-.26-.19-.56-.29-.91-.29-.5,0-.91.17-1.27.5-.36.33-.54.88-.54,1.65v4.33h-1.27v-4.86c0-.51-.06-.88-.19-1.11-.19-.34-.54-.53-1.05-.53-.48,0-.91.18-1.3.56-.39.37-.58,1.03-.58,1.99v3.95h-1.25v-7.45h1.24v1.05c.3-.37.57-.63.81-.8Z"/>
      <path d="m360.76,128.27v-1.41h1.28v1.41h-1.28Zm0,8.8v-7.42h1.28v7.42h-1.28Z"/>
      <path d="m363.69,129.63h5.78v1.03l-4.39,5.3h4.52v1.13h-6.24v-.98l4.42-5.34h-4.09v-1.13Z"/>
      <path d="m376.83,130.79c.24.37.41.81.5,1.31.07.34.11.9.11,1.65h-5.47c.03.76.21,1.35.54,1.81s.85.68,1.55.68c.66,0,1.17-.21,1.57-.64.21-.26.38-.54.47-.87h1.22c-.03.27-.13.57-.31.91-.19.34-.39.61-.63.83-.37.37-.84.61-1.41.76-.3.07-.64.11-1.01.11-.93,0-1.72-.34-2.36-1.03-.64-.67-.97-1.61-.97-2.82s.33-2.18.98-2.92c.64-.74,1.48-1.13,2.54-1.13.53,0,1.04.13,1.54.37.5.26.88.57,1.14.97Zm-1.04.66c-.33-.6-.91-.9-1.71-.9-.58,0-1.05.21-1.45.61-.38.43-.6.95-.61,1.6h4.13c-.04-.54-.16-.98-.36-1.31Z"/>
    </g>
    <rect class="cls-1" y="129.63" width="134.93" height="7.45"/>
  </g>
</svg>